<?xml version="1.0" encoding="UTF-8"?>
<svg version="1.1" xmlns="http://www.w3.org/2000/svg" width="512" height="512">
<path d="M0 0 C1.01790619 0.00215515 2.03581238 0.0043103 3.08456421 0.00653076 C17.69363523 0.05620146 32.02575853 0.30709809 46.375 3.3125 C47.34985352 3.51117676 48.32470703 3.70985352 49.32910156 3.91455078 C97.7109774 14.03517194 141.69928269 35.9516877 177.375 70.3125 C178.3640332 71.26068604 178.3640332 71.26068604 179.37304688 72.22802734 C188.86130305 81.37247479 197.6012044 90.66984009 205.375 101.3125 C206.23306152 102.46355017 207.09113451 103.61459177 207.94921875 104.765625 C213.98736829 112.95680614 219.34595521 121.47054105 224.375 130.3125 C224.73948242 130.94430176 225.10396484 131.57610352 225.47949219 132.22705078 C247.08534998 169.97532572 256.85198095 212.74189997 256.6875 255.9375 C256.68534485 256.95540619 256.6831897 257.97331238 256.68096924 259.02206421 C256.63129854 273.63113523 256.38040191 287.96325853 253.375 302.3125 C253.07698486 303.77478027 253.07698486 303.77478027 252.77294922 305.26660156 C242.65232806 353.6484774 220.7358123 397.63678269 186.375 433.3125 C185.74287598 433.97185547 185.11075195 434.63121094 184.45947266 435.31054688 C175.31502521 444.79880305 166.01765991 453.5387044 155.375 461.3125 C154.22394983 462.17056152 153.07290823 463.02863451 151.921875 463.88671875 C143.73224019 469.92427396 135.22961724 475.30707302 126.375 480.3125 C125.66778809 480.7146875 124.96057617 481.116875 124.23193359 481.53125 C101.09654164 494.5566741 75.92537591 503.30551461 49.9375 508.625 C49.21860596 508.77235596 48.49971191 508.91971191 47.7590332 509.0715332 C33.08339502 511.86090125 18.55831162 512.66142619 3.64770508 512.62817383 C0.70811513 512.6250221 -2.2304558 512.64854926 -5.16992188 512.67382812 C-18.54306192 512.71848737 -31.43916711 511.51301542 -44.625 509.3125 C-46.33055054 509.03031616 -46.33055054 509.03031616 -48.07055664 508.74243164 C-91.33802759 500.97044532 -132.38793216 480.98345309 -165.625 452.3125 C-166.37007813 451.67828125 -167.11515625 451.0440625 -167.8828125 450.390625 C-181.38779833 438.57948485 -194.05918743 425.82889772 -204.625 411.3125 C-205.48149066 410.16255169 -206.33826433 409.01281411 -207.1953125 407.86328125 C-213.23534209 399.67315742 -218.61867614 391.16870382 -223.625 382.3125 C-224.0271875 381.60528809 -224.429375 380.89807617 -224.84375 380.16943359 C-237.8691741 357.03404164 -246.61801461 331.86287591 -251.9375 305.875 C-252.08485596 305.15610596 -252.23221191 304.43721191 -252.3840332 303.6965332 C-255.35789088 288.05024391 -255.99800362 272.57681954 -255.9375 256.6875 C-255.93534485 255.66959381 -255.9331897 254.65168762 -255.93096924 253.60293579 C-255.88129854 238.99386477 -255.63040191 224.66174147 -252.625 210.3125 C-252.42632324 209.33764648 -252.22764648 208.36279297 -252.02294922 207.35839844 C-241.90232806 158.9765226 -219.9858123 114.98821731 -185.625 79.3125 C-184.99287598 78.65314453 -184.36075195 77.99378906 -183.70947266 77.31445312 C-174.56502521 67.82619695 -165.26765991 59.0862956 -154.625 51.3125 C-153.47394983 50.45443848 -152.32290823 49.59636549 -151.171875 48.73828125 C-142.98224019 42.70072604 -134.47961724 37.31792698 -125.625 32.3125 C-124.91778809 31.9103125 -124.21057617 31.508125 -123.48193359 31.09375 C-100.34654164 18.0683259 -75.17537591 9.31948539 -49.1875 4 C-48.46860596 3.85264404 -47.74971191 3.70528809 -47.0090332 3.5534668 C-31.36274391 0.57960912 -15.88931954 -0.06050362 0 0 Z " fill="#4A7AFE" transform="translate(255.625,-0.3125)"/>
<path d="M0 0 C9.9 0 19.8 0 30 0 C30 33.99 30 67.98 30 103 C72.9 103 115.8 103 160 103 C160 69.01 160 35.02 160 0 C169.9 0 179.8 0 190 0 C190 33.99 190 67.98 190 103 C224.32 103 258.64 103 294 103 C294 113.23 294 123.46 294 134 C259.68 134 225.36 134 190 134 C190 176.24 190 218.48 190 262 C224.32 262 258.64 262 294 262 C294 272.23 294 282.46 294 293 C259.68 293 225.36 293 190 293 C190 326.99 190 360.98 190 396 C180.1 396 170.2 396 160 396 C160 362.01 160 328.02 160 293 C117.1 293 74.2 293 30 293 C30 326.99 30 360.98 30 396 C20.1 396 10.2 396 0 396 C0 362.01 0 328.02 0 293 C-34.32 293 -68.64 293 -104 293 C-104 283.1 -104 273.2 -104 263 C-69.68 263 -35.36 263 0 263 C0 220.1 0 177.2 0 133 C-34.32 133 -68.64 133 -104 133 C-104 123.1 -104 113.2 -104 103 C-69.68 103 -35.36 103 0 103 C0 69.01 0 35.02 0 0 Z " fill="#E6EBF4" transform="translate(161,58)"/>
<path d="M0 0 C4.19788424 3.59818649 8.1254081 7.0023435 11.9855957 10.88793945 C12.89956619 11.80521317 13.81353668 12.72248688 14.75520325 13.66755676 C15.23132364 14.14779612 15.70744404 14.62803547 16.19799232 15.12282753 C17.70469458 16.64244237 19.21462946 18.15878013 20.72538757 19.67436218 C23.92393615 22.88425062 27.11849303 26.09809325 30.3125 29.3125 C34.03332475 33.05694727 37.7557792 36.79974469 41.48244286 40.53838158 C42.97019588 42.03261708 44.45490901 43.52982885 45.93952942 45.0271759 C46.83773911 45.92868881 47.73594879 46.83020172 48.66137695 47.7590332 C49.45300735 48.55590042 50.24463776 49.35276764 51.06025696 50.17378235 C52.87419638 52.05688943 52.87419638 52.05688943 55 53 C55.49610586 55.41021357 55.8420999 57.70883741 56.10546875 60.1484375 C56.18935349 60.90103851 56.27323822 61.65363953 56.35966492 62.42904663 C57.37400401 72.4732233 57.35090292 82.53971496 57.3125 92.625 C57.31034485 93.64290619 57.3081897 94.66081238 57.30596924 95.70956421 C57.25629854 110.31863523 57.00540191 124.65075853 54 139 C53.70198486 140.46228027 53.70198486 140.46228027 53.39794922 141.95410156 C43.27732806 190.3359774 21.3608123 234.32428269 -13 270 C-13.63212402 270.65935547 -14.26424805 271.31871094 -14.91552734 271.99804688 C-24.05997479 281.48630305 -33.35734009 290.2262044 -44 298 C-45.15105017 298.85806152 -46.30209177 299.71613451 -47.453125 300.57421875 C-55.64275981 306.61177396 -64.14538276 311.99457302 -73 317 C-73.70721191 317.4021875 -74.41442383 317.804375 -75.14306641 318.21875 C-98.27845836 331.2441741 -123.44962409 339.99301461 -149.4375 345.3125 C-150.15639404 345.45985596 -150.87528809 345.60721191 -151.6159668 345.7590332 C-166.39788462 348.5686016 -180.98430483 349.32458438 -196.00195312 349.26074219 C-198.99629962 349.25001326 -201.99004644 349.26070818 -204.984375 349.2734375 C-206.94791795 349.27211555 -208.91146053 349.26955241 -210.875 349.265625 C-211.74012207 349.26967346 -212.60524414 349.27372192 -213.49658203 349.27789307 C-216.33721986 349.25718504 -219.1623038 349.13114271 -222 349 C-223.31874619 348.98864517 -224.63749237 348.97729034 -225.99620056 348.96559143 C-238.48624977 348.51573449 -244.37856892 343.68844221 -252.69140625 334.80859375 C-253.89696185 333.57753241 -255.10584676 332.34972353 -256.31785583 331.12501526 C-259.46773382 327.92403694 -262.56952785 324.68024481 -265.66320801 321.42504883 C-268.83910121 318.10157733 -272.06180974 314.82414012 -275.27929688 311.54101562 C-279.94979111 306.7597946 -284.6058792 301.96540932 -289.22094727 297.13061523 C-289.70853012 296.62306198 -290.19611298 296.11550873 -290.69847107 295.59257507 C-294 292.11736932 -294 292.11736932 -294 291 C-284.1 291 -274.2 291 -264 291 C-264 257.01 -264 223.02 -264 188 C-221.1 188 -178.2 188 -134 188 C-134 221.99 -134 255.98 -134 291 C-124.1 291 -114.2 291 -104 291 C-104 257.01 -104 223.02 -104 188 C-69.68 188 -35.36 188 0 188 C0 177.77 0 167.54 0 157 C-34.32 157 -68.64 157 -104 157 C-104 114.76 -104 72.52 -104 29 C-69.68 29 -35.36 29 0 29 C0 19.43 0 9.86 0 0 Z " fill="#0153BF" transform="translate(455,163)"/>
<path d="M0 0 C9.9 0 19.8 0 30 0 C30 34.32 30 68.64 30 104 C51.45 104 72.9 104 95 104 C95 113.57 95 123.14 95 133 C73.55 133 52.1 133 30 133 C30 175.9 30 218.8 30 263 C51.45 263 72.9 263 95 263 C95 272.57 95 282.14 95 292 C73.55 292 52.1 292 30 292 C30 326.32 30 360.64 30 396 C20.1 396 10.2 396 0 396 C0 362.01 0 328.02 0 293 C-34.32 293 -68.64 293 -104 293 C-104 283.1 -104 273.2 -104 263 C-69.68 263 -35.36 263 0 263 C0 220.1 0 177.2 0 133 C-34.32 133 -68.64 133 -104 133 C-104 123.1 -104 113.2 -104 103 C-69.68 103 -35.36 103 0 103 C0 69.01 0 35.02 0 0 Z " fill="#FDFDFE" transform="translate(161,58)"/>
<path d="M0 0 C7.875 6.75 7.875 6.75 10.74609375 9.6484375 C11.35517578 10.26074219 11.96425781 10.87304688 12.59179688 11.50390625 C13.20087891 12.12136719 13.80996094 12.73882812 14.4375 13.375 C15.07365234 14.01566406 15.70980469 14.65632813 16.36523438 15.31640625 C17.91250332 16.87530879 19.45736492 18.43651416 21 20 C24.25702517 18.57781685 26.35998974 16.85468034 28.8203125 14.3046875 C29.52027344 13.58925781 30.22023437 12.87382813 30.94140625 12.13671875 C32.02228516 11.01716797 32.02228516 11.01716797 33.125 9.875 C34.56045878 8.38872852 36.00033993 6.90671122 37.4453125 5.4296875 C38.07969238 4.77210449 38.71407227 4.11452148 39.36767578 3.43701172 C41 2 41 2 43 2 C44.26953125 3.29296875 44.26953125 3.29296875 45.8125 5.1875 C51.15418024 11.49522879 57.12052783 17.20009963 63 23 C66.33121544 21.54990314 68.52056562 19.72522324 71.07421875 17.15625 C71.82380859 16.40472656 72.57339844 15.65320313 73.34570312 14.87890625 C74.50489258 13.70134766 74.50489258 13.70134766 75.6875 12.5 C76.47189453 11.71496094 77.25628906 10.92992188 78.06445312 10.12109375 C81.99336987 6.40551891 81.99336987 6.40551891 85 2 C88.43605181 3.48229451 90.68701591 5.4295174 93.328125 8.0625 C94.12734375 8.85914062 94.9265625 9.65578125 95.75 10.4765625 C96.575 11.30929688 97.4 12.14203125 98.25 13 C99.09046875 13.83273438 99.9309375 14.66546875 100.796875 15.5234375 C101.5909375 16.32007812 102.385 17.11671875 103.203125 17.9375 C103.93176758 18.66839844 104.66041016 19.39929688 105.41113281 20.15234375 C107 22 107 22 107 24 C108.32 24.66 109.64 25.32 111 26 C116.61 31.61 122.22 37.22 128 43 C128 62.47 128 81.94 128 102 C85.76 102 43.52 102 0 102 C0 68.34 0 34.68 0 0 Z " fill="#0253BE" transform="translate(192,59)"/>
<path d="M0 0 C13.65926047 -0.5543781 25.43693889 3.39522135 35.90234375 12.234375 C36.53527344 12.76804688 37.16820312 13.30171875 37.8203125 13.8515625 C48.09460877 23.33203897 53.76473311 35.91874638 54.42407227 49.80224609 C54.70371465 65.62632108 49.51643041 78.21143644 38.515625 89.734375 C33.15790973 94.84817544 27.76360673 98.46598566 20.90234375 101.234375 C20.17015625 101.55277344 19.43796875 101.87117188 18.68359375 102.19921875 C7.95087152 106.18723369 -5.72726427 105.72926657 -16.29296875 101.55859375 C-31.46099412 94.39708873 -40.71273679 85.68799404 -47.421875 70.171875 C-51.96840488 57.40968586 -51.84802423 43.56628509 -46.09765625 31.234375 C-39.00530859 16.88808188 -28.90537158 7.60121862 -13.88671875 2.046875 C-9.26622426 0.70084859 -4.76891704 0.36082601 0 0 Z " fill="#FDC101" transform="translate(254.09765625,203.765625)"/>
<path d="M0 0 C4.42153212 2.99798246 8.3659676 6.30810636 11.9453125 10.28515625 C12.41324219 10.74921875 12.88117188 11.21328125 13.36328125 11.69140625 C23.99089675 22.83810836 25.50157579 36.11818058 25.2890625 50.69921875 C24.86196279 61.32332401 20.33215211 69.92182663 13.9453125 78.28515625 C13.34460938 79.09984375 12.74390625 79.91453125 12.125 80.75390625 C3.65997367 90.58425941 -9.51446056 96.68042417 -22.328125 97.72265625 C-37.39012568 98.40929136 -49.88925366 93.92301778 -61.4921875 84.25390625 C-71.11733245 75.27910893 -77.80168707 63.39618077 -78.48828125 50.1015625 C-78.51159267 48.35041509 -78.51251822 46.5988408 -78.4921875 44.84765625 C-78.48461426 43.92750732 -78.47704102 43.0073584 -78.46923828 42.05932617 C-78.30171597 35.15117066 -77.34759841 29.43878351 -74.0546875 23.28515625 C-73.6421875 22.45242187 -73.2296875 21.6196875 -72.8046875 20.76171875 C-66.30510916 8.75965647 -55.75538493 -0.50110261 -42.6796875 -4.52734375 C-41.14255061 -4.94041799 -39.60104457 -5.33774966 -38.0546875 -5.71484375 C-37.43851562 -5.89660156 -36.82234375 -6.07835937 -36.1875 -6.265625 C-23.89193315 -8.85535062 -10.83066619 -6.08013102 0 0 Z " fill="#FCC101" transform="translate(434.0546875,210.71484375)"/>
<path d="M0 0 C42.9 0 85.8 0 130 0 C130 42.9 130 85.8 130 130 C87.1 130 44.2 130 0 130 C0 87.1 0 44.2 0 0 Z M25 31 C15.16394824 43.94416831 11.70817059 56.98564544 13 73 C15.27726211 85.59353384 21.78383641 98.08699728 32 106 C45.83958256 115.14371464 59.44299365 119.59512091 76.10351562 116.625 C90.54094686 113.25111149 102.73818278 104.05021663 110.5625 91.4921875 C111.85684007 89.03448224 112.96096402 86.57517936 114 84 C114.31839844 83.2678125 114.63679688 82.535625 114.96484375 81.78125 C119.46547193 69.66896034 118.18636214 54.61560988 113 43 C105.93691782 29.29469286 95.30210314 19.69351165 80.75 14.625 C60.51182244 8.91069104 38.9447936 15.35888088 25 31 Z " fill="#0556BF" transform="translate(191,191)"/>
<path d="M0 0 C33.99 0 67.98 0 103 0 C103 33.99 103 67.98 103 103 C95.12470014 96.24974297 95.12470014 96.24974297 91.51368713 92.64067078 C90.69630569 91.82610916 89.87892426 91.01154755 89.03677368 90.17230225 C87.72801773 88.86050995 87.72801773 88.86050995 86.39282227 87.5222168 C85.44619501 86.57694714 84.49935572 85.63188979 83.55232239 84.68702698 C81.00090096 82.14013346 78.45261515 79.59012474 75.90504956 77.03937507 C73.2346651 74.36644737 70.56182875 71.69597323 67.88938904 69.02510071 C63.40989358 64.54741933 58.93249962 60.06764471 54.45629883 55.58666992 C49.27584464 50.40075461 44.09177091 45.21847845 38.90584141 40.03803891 C34.4495462 35.58627281 29.99519142 31.1325722 25.54247135 26.67723018 C22.88429993 24.01749743 20.22545182 21.35845061 17.56485176 18.70114708 C14.60751237 15.74721707 11.65425325 12.78924104 8.70141602 9.83081055 C7.81474243 8.94616119 6.92806885 8.06151184 6.01452637 7.15005493 C5.2168837 6.34959244 4.41924103 5.54912994 3.59742737 4.72441101 C2.89858209 4.0251887 2.1997368 3.3259664 1.47971439 2.60555553 C0 1 0 1 0 0 Z " fill="#0053BF" transform="translate(58,351)"/>
<path d="M0 0 C33.99 0 67.98 0 103 0 C103 33.99 103 67.98 103 103 C95.12470014 96.24974297 95.12470014 96.24974297 91.51368713 92.64067078 C90.69630569 91.82610916 89.87892426 91.01154755 89.03677368 90.17230225 C87.72801773 88.86050995 87.72801773 88.86050995 86.39282227 87.5222168 C85.44619501 86.57694714 84.49935572 85.63188979 83.55232239 84.68702698 C81.00090096 82.14013346 78.45261515 79.59012474 75.90504956 77.03937507 C73.2346651 74.36644737 70.56182875 71.69597323 67.88938904 69.02510071 C63.40989358 64.54741933 58.93249962 60.06764471 54.45629883 55.58666992 C49.27584464 50.40075461 44.09177091 45.21847845 38.90584141 40.03803891 C34.4495462 35.58627281 29.99519142 31.1325722 25.54247135 26.67723018 C22.88429993 24.01749743 20.22545182 21.35845061 17.56485176 18.70114708 C14.60751237 15.74721707 11.65425325 12.78924104 8.70141602 9.83081055 C7.81474243 8.94616119 6.92806885 8.06151184 6.01452637 7.15005493 C5.2168837 6.34959244 4.41924103 5.54912994 3.59742737 4.72441101 C2.89858209 4.0251887 2.1997368 3.3259664 1.47971439 2.60555553 C0 1 0 1 0 0 Z " fill="#0053BF" transform="translate(58,192)"/>
<path d="M0 0 C7.87529988 6.75025704 7.87529988 6.75025704 11.448349 10.32136536 C12.25731628 11.12751282 13.06628357 11.93366028 13.89976501 12.76423645 C15.19449486 14.06200264 15.19449486 14.06200264 16.51538086 15.38598633 C17.44299225 16.3118454 18.37060364 17.23770447 19.32632446 18.19161987 C21.85088701 20.71165505 24.37231449 23.23480465 26.89302135 25.75869584 C29.53537847 28.40359645 32.18018775 31.04604321 34.82460022 33.68888855 C39.2570172 38.11949154 43.68733283 42.55218753 48.11645508 46.98608398 C53.24237763 52.11746785 58.37191991 57.24521218 63.50331777 62.37112027 C67.91290425 66.77617764 72.32055027 71.18316948 76.72656161 75.59180278 C79.35678738 78.22358986 81.98768973 80.85469101 84.62034416 83.48404884 C87.54655061 86.40684589 90.46867659 89.3336888 93.39038086 92.26098633 C94.2677037 93.13628494 95.14502655 94.01158356 96.04893494 94.91340637 C96.83816345 95.70545471 97.62739197 96.49750305 98.4405365 97.31355286 C99.47774291 98.3513248 99.47774291 98.3513248 100.53590298 99.41006184 C102 101 102 101 102 102 C68.34 102 34.68 102 0 102 C0 68.34 0 34.68 0 0 Z " fill="#0053BF" transform="translate(351,59)"/>
<path d="M0 0 C1.26953125 1.29296875 1.26953125 1.29296875 2.8125 3.1875 C8.15418024 9.49522879 14.12052783 15.20009963 20 21 C23.33121544 19.54990314 25.52056562 17.72522324 28.07421875 15.15625 C28.82380859 14.40472656 29.57339844 13.65320313 30.34570312 12.87890625 C31.11849609 12.09386719 31.89128906 11.30882813 32.6875 10.5 C33.47189453 9.71496094 34.25628906 8.92992188 35.06445312 8.12109375 C38.99336987 4.40551891 38.99336987 4.40551891 42 0 C45.46629835 1.48653506 47.69022036 3.45722351 50.328125 6.1328125 C51.12734375 6.93847656 51.9265625 7.74414062 52.75 8.57421875 C53.575 9.41597656 54.4 10.25773437 55.25 11.125 C56.09046875 11.97449219 56.9309375 12.82398437 57.796875 13.69921875 C59.86915683 15.79504923 61.93662393 17.89540713 64 20 C62.52040972 23.47794085 60.56896551 25.60492072 57.83203125 28.1875 C57.02185547 28.96867187 56.21167969 29.74984375 55.37695312 30.5546875 C53.66116982 32.1907581 51.93975599 33.82094327 50.21289062 35.4453125 C49.00342773 36.61707031 49.00342773 36.61707031 47.76953125 37.8125 C47.02292236 38.52019531 46.27631348 39.22789063 45.50708008 39.95703125 C43.80465506 41.8421137 43.80465506 41.8421137 43.99853516 43.97753906 C45.34201624 46.69070271 47.09148146 48.42741229 49.25390625 50.546875 C50.10791016 51.39121094 50.96191406 52.23554687 51.84179688 53.10546875 C52.73962891 53.97816406 53.63746094 54.85085937 54.5625 55.75 C55.46419922 56.63816406 56.36589844 57.52632812 57.29492188 58.44140625 C59.52337098 60.63448315 61.75851593 62.82026044 64 65 C62.51770549 68.43605181 60.5704826 70.68701591 57.9375 73.328125 C56.74253906 74.52695313 56.74253906 74.52695313 55.5234375 75.75 C54.69070313 76.575 53.85796875 77.4 53 78.25 C51.75089844 79.51070312 51.75089844 79.51070312 50.4765625 80.796875 C49.67992187 81.5909375 48.88328125 82.385 48.0625 83.203125 C47.33160156 83.93176758 46.60070312 84.66041016 45.84765625 85.41113281 C44 87 44 87 42 87 C40.73046875 85.70703125 40.73046875 85.70703125 39.1875 83.8125 C33.84581976 77.50477121 27.87947217 71.79990037 22 66 C18.53370165 67.48653506 16.30977964 69.45722351 13.671875 72.1328125 C12.47304687 73.34130859 12.47304687 73.34130859 11.25 74.57421875 C10.425 75.41597656 9.6 76.25773437 8.75 77.125 C7.90953125 77.97449219 7.0690625 78.82398438 6.203125 79.69921875 C4.13084317 81.79504923 2.06337607 83.89540713 0 86 C-3.46629835 84.51346494 -5.69022036 82.54277649 -8.328125 79.8671875 C-9.12734375 79.06152344 -9.9265625 78.25585938 -10.75 77.42578125 C-11.575 76.58402344 -12.4 75.74226563 -13.25 74.875 C-14.09046875 74.02550781 -14.9309375 73.17601562 -15.796875 72.30078125 C-17.86915683 70.20495077 -19.93662393 68.10459287 -22 66 C-17.61557474 60.74825074 -12.99157907 55.86777527 -8.125 51.0625 C-7.43664062 50.37865234 -6.74828125 49.69480469 -6.0390625 48.99023438 C-4.36166489 47.32448536 -2.68196209 45.6611378 -1 44 C-5.38442526 38.74825074 -10.00842093 33.86777527 -14.875 29.0625 C-15.56335938 28.37865234 -16.25171875 27.69480469 -16.9609375 26.99023438 C-18.63833511 25.32448536 -20.31803791 23.6611378 -22 22 C-20.51770549 18.56394819 -18.5704826 16.31298409 -15.9375 13.671875 C-15.14085937 12.87265625 -14.34421875 12.0734375 -13.5234375 11.25 C-12.27433594 10.0125 -12.27433594 10.0125 -11 8.75 C-10.16726562 7.90953125 -9.33453125 7.0690625 -8.4765625 6.203125 C-7.67992187 5.4090625 -6.88328125 4.615 -6.0625 3.796875 C-5.33160156 3.06823242 -4.60070312 2.33958984 -3.84765625 1.58886719 C-2 0 -2 0 0 0 Z " fill="#D62878" transform="translate(235,61)"/>
<path d="M0 0 C3.46629835 1.48653506 5.69022036 3.45722351 8.328125 6.1328125 C9.12734375 6.93847656 9.9265625 7.74414062 10.75 8.57421875 C11.575 9.41597656 12.4 10.25773437 13.25 11.125 C14.09046875 11.97449219 14.9309375 12.82398438 15.796875 13.69921875 C17.86915683 15.79504923 19.93662393 17.89540713 22 20 C20.52040972 23.47794085 18.56896551 25.60492072 15.83203125 28.1875 C15.02185547 28.96867187 14.21167969 29.74984375 13.37695312 30.5546875 C11.66116982 32.1907581 9.93975599 33.82094327 8.21289062 35.4453125 C7.00342773 36.61707031 7.00342773 36.61707031 5.76953125 37.8125 C5.02292236 38.52019531 4.27631348 39.22789062 3.50708008 39.95703125 C1.80465506 41.8421137 1.80465506 41.8421137 1.99853516 43.97753906 C3.34201624 46.69070271 5.09148146 48.42741229 7.25390625 50.546875 C8.10791016 51.39121094 8.96191406 52.23554688 9.84179688 53.10546875 C10.73962891 53.97816406 11.63746094 54.85085938 12.5625 55.75 C13.46419922 56.63816406 14.36589844 57.52632813 15.29492188 58.44140625 C17.52337098 60.63448315 19.75851593 62.82026044 22 65 C20.51770549 68.43605181 18.5704826 70.68701591 15.9375 73.328125 C14.74253906 74.52695312 14.74253906 74.52695312 13.5234375 75.75 C12.69070313 76.575 11.85796875 77.4 11 78.25 C9.75089844 79.51070312 9.75089844 79.51070312 8.4765625 80.796875 C7.67992187 81.5909375 6.88328125 82.385 6.0625 83.203125 C5.33160156 83.93176758 4.60070312 84.66041016 3.84765625 85.41113281 C2 87 2 87 0 87 C-1.26953125 85.70703125 -1.26953125 85.70703125 -2.8125 83.8125 C-8.15418024 77.50477121 -14.12052783 71.79990037 -20 66 C-23.47794085 67.47959028 -25.60492072 69.43103449 -28.1875 72.16796875 C-28.96867187 72.97814453 -29.74984375 73.78832031 -30.5546875 74.62304688 C-32.1907581 76.33883018 -33.82094327 78.06024401 -35.4453125 79.78710938 C-36.22648437 80.59341797 -37.00765625 81.39972656 -37.8125 82.23046875 C-38.87404297 83.35038208 -38.87404297 83.35038208 -39.95703125 84.49291992 C-42 86 -42 86 -43.99121094 85.98779297 C-46.6163584 84.69691467 -48.28090358 83.05593421 -50.328125 80.96484375 C-51.52695313 79.75151367 -51.52695313 79.75151367 -52.75 78.51367188 C-53.575 77.66353516 -54.4 76.81339844 -55.25 75.9375 C-56.09046875 75.08349609 -56.9309375 74.22949219 -57.796875 73.34960938 C-59.87147597 71.23964588 -61.93875832 69.12300292 -64 67 C-62.48623919 63.43235715 -60.39486871 61.16293713 -57.6484375 58.453125 C-56.79765625 57.60878906 -55.946875 56.76445312 -55.0703125 55.89453125 C-54.18085938 55.02183594 -53.29140625 54.14914062 -52.375 53.25 C-51.4778125 52.36183594 -50.580625 51.47367187 -49.65625 50.55859375 C-47.44192996 48.36783031 -45.22307565 46.18187237 -43 44 C-47.38442526 38.74825074 -52.00842093 33.86777527 -56.875 29.0625 C-57.56335938 28.37865234 -58.25171875 27.69480469 -58.9609375 26.99023438 C-60.63833511 25.32448536 -62.31803791 23.6611378 -64 22 C-59.76183463 16.93376232 -55.32591037 12.19961931 -50.625 7.5625 C-49.98433594 6.92634766 -49.34367188 6.29019531 -48.68359375 5.63476562 C-47.12469121 4.08749668 -45.56348584 2.54263508 -44 1 C-40.53370165 2.48653506 -38.30977964 4.45722351 -35.671875 7.1328125 C-34.87265625 7.93847656 -34.0734375 8.74414062 -33.25 9.57421875 C-32.425 10.41597656 -31.6 11.25773437 -30.75 12.125 C-29.90953125 12.97449219 -29.0690625 13.82398438 -28.203125 14.69921875 C-26.13084317 16.79504923 -24.06337607 18.89540713 -22 21 C-18.66878456 19.54990314 -16.47943438 17.72522324 -13.92578125 15.15625 C-13.17619141 14.40472656 -12.42660156 13.65320313 -11.65429688 12.87890625 C-10.88150391 12.09386719 -10.10871094 11.30882812 -9.3125 10.5 C-8.52810547 9.71496094 -7.74371094 8.92992187 -6.93554688 8.12109375 C-3.00663013 4.40551891 -3.00663013 4.40551891 0 0 Z " fill="#D62878" transform="translate(277,364)"/>
<path d="M0 0 C0 9.9 0 19.8 0 30 C-2.64 30.66 -5.28 31.32 -8 32 C-13.76535011 34.38071671 -17.4062206 37.87801214 -20.15234375 43.47265625 C-22.18342078 49.52844814 -21.98292565 55.5635409 -19.3125 61.375 C-16.04105627 66.98810872 -12.03055381 70.53854946 -6 73 C-3.03 73.495 -3.03 73.495 0 74 C0 83.9 0 93.8 0 104 C-14.25683676 104 -26.7301732 99.12001289 -37.3125 89.3125 C-47.62973918 78.15872792 -52.67126052 64.29060205 -52.47070312 49.23876953 C-51.89452228 35.67706603 -45.36301213 22.16368845 -35.44140625 12.8828125 C-24.73689339 4.62749219 -13.60873995 0 0 0 Z " fill="#FCDE01" transform="translate(256,204)"/>
<path d="M0 0 C1.234375 1.2578125 1.234375 1.2578125 2.75 3.125 C5.09968855 6.01207432 7.50953464 8.47364744 10.40063477 10.7980957 C16.82425864 16.15160329 21.56322787 20.88656677 22.87161255 29.39491272 C23.27656927 33.96688622 23.2985552 38.47686223 23.1875 43.0625 C23.18637207 44.01178375 23.18524414 44.9610675 23.18408203 45.93911743 C23.08690323 57.67035918 21.85654213 66.87753953 13.45825195 75.50366211 C9.19917168 79.36766057 4.83185395 82.87850975 0 86 C-3.46629835 84.51346494 -5.69022036 82.54277649 -8.328125 79.8671875 C-9.12734375 79.06152344 -9.9265625 78.25585938 -10.75 77.42578125 C-11.575 76.58402344 -12.4 75.74226563 -13.25 74.875 C-14.09046875 74.02550781 -14.9309375 73.17601562 -15.796875 72.30078125 C-17.86915683 70.20495077 -19.93662393 68.10459287 -22 66 C-17.61557474 60.74825074 -12.99157907 55.86777527 -8.125 51.0625 C-7.43664062 50.37865234 -6.74828125 49.69480469 -6.0390625 48.99023438 C-4.36166489 47.32448536 -2.68196209 45.6611378 -1 44 C-5.38442526 38.74825074 -10.00842093 33.86777527 -14.875 29.0625 C-15.56335938 28.37865234 -16.25171875 27.69480469 -16.9609375 26.99023438 C-18.63833511 25.32448536 -20.31803791 23.6611378 -22 22 C-20.51770549 18.56394819 -18.5704826 16.31298409 -15.9375 13.671875 C-15.14085937 12.87265625 -14.34421875 12.0734375 -13.5234375 11.25 C-12.27433594 10.0125 -12.27433594 10.0125 -11 8.75 C-10.16726562 7.90953125 -9.33453125 7.0690625 -8.4765625 6.203125 C-7.67992187 5.4090625 -6.88328125 4.615 -6.0625 3.796875 C-5.33160156 3.06823242 -4.60070312 2.33958984 -3.84765625 1.58886719 C-2 0 -2 0 0 0 Z " fill="#FD5F96" transform="translate(235,61)"/>
<path d="M0 0 C9.40264243 4.50732816 18.67354628 11.22047442 23 21 C26.90055745 34.11945296 27.82951224 53.42985085 22.0378418 66.10583496 C17.52601992 73.87269147 10.10913715 81.14658058 2 85 C-1.8468339 84.88450295 -3.73331603 82.61525577 -6.328125 79.96484375 C-7.52695313 78.75151367 -7.52695313 78.75151367 -8.75 77.51367188 C-9.575 76.66353516 -10.4 75.81339844 -11.25 74.9375 C-12.09046875 74.08349609 -12.9309375 73.22949219 -13.796875 72.34960938 C-15.87147597 70.23964588 -17.93875832 68.12300292 -20 66 C-18.48623919 62.43235715 -16.39486871 60.16293713 -13.6484375 57.453125 C-12.79765625 56.60878906 -11.946875 55.76445312 -11.0703125 54.89453125 C-10.18085938 54.02183594 -9.29140625 53.14914062 -8.375 52.25 C-7.4778125 51.36183594 -6.580625 50.47367187 -5.65625 49.55859375 C-3.44192996 47.36783031 -1.22307565 45.18187237 1 43 C-3.38442526 37.74825074 -8.00842093 32.86777527 -12.875 28.0625 C-13.56335938 27.37865234 -14.25171875 26.69480469 -14.9609375 25.99023438 C-16.63833511 24.32448536 -18.31803791 22.6611378 -20 21 C-15.76183463 15.93376232 -11.32591037 11.19961931 -6.625 6.5625 C-5.98433594 5.92634766 -5.34367188 5.29019531 -4.68359375 4.63476562 C-3.12469121 3.08749668 -1.56348584 1.54263508 0 0 Z " fill="#FD5E96" transform="translate(233,365)"/>
<path d="M0 0 C5.22220635 3.01322379 9.4641298 7.81843713 11.6875 13.4375 C12.5510639 21.02882917 12.52267516 28.23094475 7.6875 34.4375 C3.48831029 38.88545687 -0.7185442 41.97549671 -6.92578125 42.7734375 C-14.27496879 42.87979333 -19.60342247 41.92353723 -25.06640625 36.7890625 C-30.72528747 30.54383937 -31.84398024 25.02302883 -31.68359375 16.6640625 C-31.01620094 10.86125767 -28.60257171 7.46915895 -24.3046875 3.65625 C-17.14326558 -1.94604316 -8.64023065 -3.90311578 0 0 Z " fill="#0354BC" transform="translate(417.3125,235.5625)"/>
<path d="M0 0 C6.08418446 3.05287979 10.07051511 7.705534 12.8125 13.875 C13.76613439 20.78884933 13.35825971 27.627123 9.3125 33.5 C3.66618946 39.40863912 -1.2055169 42.39734703 -9.4375 43 C-15.57423977 42.85190372 -20.0462968 40.40881475 -24.6875 36.5 C-29.49868776 30.64050298 -31.19170704 25.02209295 -31.08203125 17.484375 C-30.25340627 11.21636026 -27.15383309 6.62308055 -22.4140625 2.54296875 C-15.04680574 -2.4188903 -8.28912804 -3.11896004 0 0 Z " fill="#0354BC" transform="translate(264.6875,235.5)"/>
</svg>
